<mxfile host="app.diagrams.net" modified="2022-03-19T00:50:16.395Z" agent="5.0 (Macintosh; Intel Mac OS X 10_15_7) AppleWebKit/537.36 (KHTML, like Gecko) Chrome/98.0.4758.80 Safari/537.36" etag="-o27MKEYEre77nT1_suH" version="17.1.3" type="github">
  <diagram id="C5RBs43oDa-KdzZeNtuy" name="Page-1">
    <mxGraphModel dx="946" dy="614" grid="1" gridSize="10" guides="1" tooltips="1" connect="1" arrows="1" fold="1" page="1" pageScale="1" pageWidth="827" pageHeight="1169" math="0" shadow="0">
      <root>
        <mxCell id="WIyWlLk6GJQsqaUBKTNV-0" />
        <mxCell id="WIyWlLk6GJQsqaUBKTNV-1" parent="WIyWlLk6GJQsqaUBKTNV-0" />
        <mxCell id="RLglXPIKIT2S0fy-gvV5-17" value="" style="edgeStyle=orthogonalEdgeStyle;rounded=0;orthogonalLoop=1;jettySize=auto;html=1;endArrow=block;endFill=0;exitX=0.5;exitY=1;exitDx=0;exitDy=0;entryX=0.5;entryY=0;entryDx=0;entryDy=0;" edge="1" parent="WIyWlLk6GJQsqaUBKTNV-1" source="RLglXPIKIT2S0fy-gvV5-16" target="ZcmDi9jEiyELuUDmYZfr-26">
          <mxGeometry relative="1" as="geometry">
            <mxPoint x="240" y="80" as="sourcePoint" />
          </mxGeometry>
        </mxCell>
        <mxCell id="ZcmDi9jEiyELuUDmYZfr-18" value="Yes" style="rounded=0;html=1;jettySize=auto;orthogonalLoop=1;fontSize=11;endArrow=block;endFill=0;endSize=8;strokeWidth=1;shadow=0;labelBackgroundColor=none;edgeStyle=orthogonalEdgeStyle;entryX=0.5;entryY=0;entryDx=0;entryDy=0;" parent="WIyWlLk6GJQsqaUBKTNV-1" source="ZcmDi9jEiyELuUDmYZfr-20" target="ZcmDi9jEiyELuUDmYZfr-24" edge="1">
          <mxGeometry y="20" relative="1" as="geometry">
            <mxPoint as="offset" />
          </mxGeometry>
        </mxCell>
        <mxCell id="ZcmDi9jEiyELuUDmYZfr-19" value="No" style="edgeStyle=orthogonalEdgeStyle;rounded=0;html=1;jettySize=auto;orthogonalLoop=1;fontSize=11;endArrow=block;endFill=0;endSize=8;strokeWidth=1;shadow=0;labelBackgroundColor=none;" parent="WIyWlLk6GJQsqaUBKTNV-1" source="ZcmDi9jEiyELuUDmYZfr-20" target="ZcmDi9jEiyELuUDmYZfr-21" edge="1">
          <mxGeometry y="10" relative="1" as="geometry">
            <mxPoint as="offset" />
          </mxGeometry>
        </mxCell>
        <mxCell id="ZcmDi9jEiyELuUDmYZfr-20" value="人の有無" style="rhombus;whiteSpace=wrap;html=1;shadow=0;fontFamily=Helvetica;fontSize=12;align=center;strokeWidth=1;spacing=6;spacingTop=-4;" parent="WIyWlLk6GJQsqaUBKTNV-1" vertex="1">
          <mxGeometry x="180" y="380" width="100" height="80" as="geometry" />
        </mxCell>
        <mxCell id="ZcmDi9jEiyELuUDmYZfr-21" value="ループ" style="rounded=1;whiteSpace=wrap;html=1;fontSize=12;glass=0;strokeWidth=1;shadow=0;" parent="WIyWlLk6GJQsqaUBKTNV-1" vertex="1">
          <mxGeometry x="170" y="690" width="120" height="40" as="geometry" />
        </mxCell>
        <mxCell id="ZcmDi9jEiyELuUDmYZfr-22" value="No" style="rounded=0;html=1;jettySize=auto;orthogonalLoop=1;fontSize=11;endArrow=block;endFill=0;endSize=8;strokeWidth=1;shadow=0;labelBackgroundColor=none;edgeStyle=orthogonalEdgeStyle;entryX=1;entryY=0.5;entryDx=0;entryDy=0;" parent="WIyWlLk6GJQsqaUBKTNV-1" source="ZcmDi9jEiyELuUDmYZfr-24" target="ZcmDi9jEiyELuUDmYZfr-21" edge="1">
          <mxGeometry x="0.3333" y="20" relative="1" as="geometry">
            <mxPoint as="offset" />
            <mxPoint x="550" y="510.0000000000001" as="targetPoint" />
          </mxGeometry>
        </mxCell>
        <mxCell id="ZcmDi9jEiyELuUDmYZfr-23" value="Yes" style="edgeStyle=orthogonalEdgeStyle;rounded=0;html=1;jettySize=auto;orthogonalLoop=1;fontSize=11;endArrow=block;endFill=0;endSize=8;strokeWidth=1;shadow=0;labelBackgroundColor=none;entryX=0.5;entryY=0;entryDx=0;entryDy=0;" parent="WIyWlLk6GJQsqaUBKTNV-1" source="ZcmDi9jEiyELuUDmYZfr-24" target="ZcmDi9jEiyELuUDmYZfr-27" edge="1">
          <mxGeometry y="10" relative="1" as="geometry">
            <mxPoint as="offset" />
            <mxPoint x="330" y="540" as="targetPoint" />
          </mxGeometry>
        </mxCell>
        <mxCell id="ZcmDi9jEiyELuUDmYZfr-24" value="一定時間いるか" style="rhombus;whiteSpace=wrap;html=1;shadow=0;fontFamily=Helvetica;fontSize=12;align=center;strokeWidth=1;spacing=6;spacingTop=-4;" parent="WIyWlLk6GJQsqaUBKTNV-1" vertex="1">
          <mxGeometry x="340" y="440" width="100" height="80" as="geometry" />
        </mxCell>
        <mxCell id="RLglXPIKIT2S0fy-gvV5-7" value="" style="edgeStyle=orthogonalEdgeStyle;rounded=0;orthogonalLoop=1;jettySize=auto;html=1;" edge="1" parent="WIyWlLk6GJQsqaUBKTNV-1" source="ZcmDi9jEiyELuUDmYZfr-26" target="RLglXPIKIT2S0fy-gvV5-4">
          <mxGeometry relative="1" as="geometry" />
        </mxCell>
        <mxCell id="ZcmDi9jEiyELuUDmYZfr-26" value="カメラ起動" style="rounded=0;whiteSpace=wrap;html=1;" parent="WIyWlLk6GJQsqaUBKTNV-1" vertex="1">
          <mxGeometry x="170" y="120" width="120" height="30" as="geometry" />
        </mxCell>
        <mxCell id="ZcmDi9jEiyELuUDmYZfr-27" value="画像を保存" style="rounded=0;whiteSpace=wrap;html=1;" parent="WIyWlLk6GJQsqaUBKTNV-1" vertex="1">
          <mxGeometry x="330" y="560" width="120" height="40" as="geometry" />
        </mxCell>
        <mxCell id="ZcmDi9jEiyELuUDmYZfr-28" value="" style="endArrow=classic;html=1;rounded=0;exitX=0;exitY=0.5;exitDx=0;exitDy=0;edgeStyle=orthogonalEdgeStyle;" parent="WIyWlLk6GJQsqaUBKTNV-1" source="ZcmDi9jEiyELuUDmYZfr-21" edge="1">
          <mxGeometry width="50" height="50" relative="1" as="geometry">
            <mxPoint x="180" y="480.0000000000001" as="sourcePoint" />
            <mxPoint x="230" y="340" as="targetPoint" />
            <Array as="points">
              <mxPoint x="160" y="710" />
              <mxPoint x="160" y="340" />
              <mxPoint x="230" y="340" />
            </Array>
          </mxGeometry>
        </mxCell>
        <mxCell id="ZcmDi9jEiyELuUDmYZfr-29" value="" style="endArrow=classic;html=1;rounded=0;exitX=0.5;exitY=1;exitDx=0;exitDy=0;entryX=0.5;entryY=0;entryDx=0;entryDy=0;edgeStyle=orthogonalEdgeStyle;" parent="WIyWlLk6GJQsqaUBKTNV-1" source="ZcmDi9jEiyELuUDmYZfr-27" target="RLglXPIKIT2S0fy-gvV5-21" edge="1">
          <mxGeometry width="50" height="50" relative="1" as="geometry">
            <mxPoint x="360" y="510" as="sourcePoint" />
            <mxPoint x="400" y="630" as="targetPoint" />
          </mxGeometry>
        </mxCell>
        <mxCell id="ZcmDi9jEiyELuUDmYZfr-31" value="" style="endArrow=block;html=1;rounded=0;exitX=0.5;exitY=1;exitDx=0;exitDy=0;entryX=0.5;entryY=1;entryDx=0;entryDy=0;edgeStyle=orthogonalEdgeStyle;endFill=0;" parent="WIyWlLk6GJQsqaUBKTNV-1" source="RLglXPIKIT2S0fy-gvV5-21" target="ZcmDi9jEiyELuUDmYZfr-21" edge="1">
          <mxGeometry width="50" height="50" relative="1" as="geometry">
            <mxPoint x="390" y="670" as="sourcePoint" />
            <mxPoint x="390" y="700.0000000000001" as="targetPoint" />
          </mxGeometry>
        </mxCell>
        <mxCell id="RLglXPIKIT2S0fy-gvV5-26" value="例外なし" style="edgeLabel;html=1;align=center;verticalAlign=middle;resizable=0;points=[];container=0;" vertex="1" connectable="0" parent="ZcmDi9jEiyELuUDmYZfr-31">
          <mxGeometry x="-0.1014" relative="1" as="geometry">
            <mxPoint x="59" y="-40" as="offset" />
          </mxGeometry>
        </mxCell>
        <mxCell id="RLglXPIKIT2S0fy-gvV5-4" value="try文：画像取得" style="rhombus;whiteSpace=wrap;html=1;" vertex="1" parent="WIyWlLk6GJQsqaUBKTNV-1">
          <mxGeometry x="175" y="180" width="110" height="80" as="geometry" />
        </mxCell>
        <mxCell id="RLglXPIKIT2S0fy-gvV5-12" value="例外なし" style="rounded=0;html=1;jettySize=auto;orthogonalLoop=1;fontSize=11;endArrow=block;endFill=0;endSize=8;strokeWidth=1;shadow=0;labelBackgroundColor=none;edgeStyle=orthogonalEdgeStyle;entryX=0.5;entryY=0;entryDx=0;entryDy=0;exitX=0.5;exitY=1;exitDx=0;exitDy=0;" edge="1" parent="WIyWlLk6GJQsqaUBKTNV-1" source="RLglXPIKIT2S0fy-gvV5-4" target="ZcmDi9jEiyELuUDmYZfr-20">
          <mxGeometry y="50" relative="1" as="geometry">
            <mxPoint as="offset" />
            <mxPoint x="280" y="320" as="sourcePoint" />
            <mxPoint x="390" y="340" as="targetPoint" />
          </mxGeometry>
        </mxCell>
        <mxCell id="RLglXPIKIT2S0fy-gvV5-13" value="例外あり" style="rounded=0;html=1;jettySize=auto;orthogonalLoop=1;fontSize=11;endArrow=block;endFill=0;endSize=8;strokeWidth=1;shadow=0;labelBackgroundColor=none;edgeStyle=orthogonalEdgeStyle;exitX=1;exitY=0.5;exitDx=0;exitDy=0;entryX=0;entryY=0.5;entryDx=0;entryDy=0;" edge="1" parent="WIyWlLk6GJQsqaUBKTNV-1" source="RLglXPIKIT2S0fy-gvV5-4" target="RLglXPIKIT2S0fy-gvV5-14">
          <mxGeometry x="0.0476" y="20" relative="1" as="geometry">
            <mxPoint as="offset" />
            <mxPoint x="240" y="270" as="sourcePoint" />
            <mxPoint x="440" y="260" as="targetPoint" />
          </mxGeometry>
        </mxCell>
        <mxCell id="RLglXPIKIT2S0fy-gvV5-19" value="" style="edgeStyle=orthogonalEdgeStyle;rounded=0;orthogonalLoop=1;jettySize=auto;html=1;endArrow=classic;endFill=1;" edge="1" parent="WIyWlLk6GJQsqaUBKTNV-1" source="RLglXPIKIT2S0fy-gvV5-14" target="RLglXPIKIT2S0fy-gvV5-18">
          <mxGeometry relative="1" as="geometry" />
        </mxCell>
        <mxCell id="RLglXPIKIT2S0fy-gvV5-14" value="except文:&lt;br&gt;「カメラの画像が取得できません。」を表示する" style="whiteSpace=wrap;html=1;" vertex="1" parent="WIyWlLk6GJQsqaUBKTNV-1">
          <mxGeometry x="390" y="190" width="120" height="60" as="geometry" />
        </mxCell>
        <mxCell id="RLglXPIKIT2S0fy-gvV5-16" value="start" style="ellipse;whiteSpace=wrap;html=1;" vertex="1" parent="WIyWlLk6GJQsqaUBKTNV-1">
          <mxGeometry x="170" y="35" width="120" height="50" as="geometry" />
        </mxCell>
        <mxCell id="RLglXPIKIT2S0fy-gvV5-18" value="end" style="ellipse;whiteSpace=wrap;html=1;" vertex="1" parent="WIyWlLk6GJQsqaUBKTNV-1">
          <mxGeometry x="390" y="290" width="120" height="50" as="geometry" />
        </mxCell>
        <mxCell id="RLglXPIKIT2S0fy-gvV5-21" value="try文：Slackへ通知" style="rhombus;whiteSpace=wrap;html=1;" vertex="1" parent="WIyWlLk6GJQsqaUBKTNV-1">
          <mxGeometry x="470" y="600" width="110" height="80" as="geometry" />
        </mxCell>
        <mxCell id="RLglXPIKIT2S0fy-gvV5-22" value="例外あり" style="rounded=0;html=1;jettySize=auto;orthogonalLoop=1;fontSize=11;endArrow=block;endFill=0;endSize=8;strokeWidth=1;shadow=0;labelBackgroundColor=none;edgeStyle=orthogonalEdgeStyle;exitX=1;exitY=0.5;exitDx=0;exitDy=0;entryX=0;entryY=0.5;entryDx=0;entryDy=0;" edge="1" parent="WIyWlLk6GJQsqaUBKTNV-1" source="RLglXPIKIT2S0fy-gvV5-21" target="RLglXPIKIT2S0fy-gvV5-24">
          <mxGeometry x="0.0476" y="20" relative="1" as="geometry">
            <mxPoint as="offset" />
            <mxPoint x="535" y="560" as="sourcePoint" />
            <mxPoint x="735" y="550" as="targetPoint" />
          </mxGeometry>
        </mxCell>
        <mxCell id="RLglXPIKIT2S0fy-gvV5-23" value="" style="edgeStyle=orthogonalEdgeStyle;rounded=0;orthogonalLoop=1;jettySize=auto;html=1;endArrow=classic;endFill=1;" edge="1" parent="WIyWlLk6GJQsqaUBKTNV-1" source="RLglXPIKIT2S0fy-gvV5-24" target="RLglXPIKIT2S0fy-gvV5-25">
          <mxGeometry relative="1" as="geometry" />
        </mxCell>
        <mxCell id="RLglXPIKIT2S0fy-gvV5-24" value="except文:&lt;br&gt;「Slackへ通知できません。」を表示する" style="whiteSpace=wrap;html=1;" vertex="1" parent="WIyWlLk6GJQsqaUBKTNV-1">
          <mxGeometry x="650" y="610" width="120" height="60" as="geometry" />
        </mxCell>
        <mxCell id="RLglXPIKIT2S0fy-gvV5-25" value="end" style="ellipse;whiteSpace=wrap;html=1;" vertex="1" parent="WIyWlLk6GJQsqaUBKTNV-1">
          <mxGeometry x="650" y="710" width="120" height="50" as="geometry" />
        </mxCell>
      </root>
    </mxGraphModel>
  </diagram>
</mxfile>
